<?xml version="1.0" encoding="UTF-8"?>
<!DOCTYPE svg PUBLIC "-//W3C//DTD SVG 1.1//EN" "http://www.w3.org/Graphics/SVG/1.1/DTD/svg11.dtd">
<svg xmlns="http://www.w3.org/2000/svg" version="1.1" width="32px" height="32px" style="shape-rendering:geometricPrecision; text-rendering:geometricPrecision; image-rendering:optimizeQuality; fill-rule:evenodd; clip-rule:evenodd" xmlns:xlink="http://www.w3.org/1999/xlink">
<g><path style="opacity:0.075" fill="#332821" d="M 11.5,-0.5 C 13.1667,-0.5 14.8333,-0.5 16.5,-0.5C 16.5,-0.166667 16.5,0.166667 16.5,0.5C 15.8333,0.5 15.1667,0.5 14.5,0.5C 13.391,0.556884 12.391,0.890217 11.5,1.5C 10.8333,1.5 10.1667,1.5 9.5,1.5C 10.1667,0.833333 10.8333,0.166667 11.5,-0.5 Z"/></g>
<g><path style="opacity:1" fill="#f2e0bd" d="M 14.5,0.5 C 15.1667,0.5 15.8333,0.5 16.5,0.5C 17.791,0.262695 18.791,0.596028 19.5,1.5C 18.8333,1.5 18.1667,1.5 17.5,1.5C 16.2223,1.78219 15.2223,2.44886 14.5,3.5C 14.5,2.5 14.5,1.5 14.5,0.5 Z"/></g>
<g><path style="opacity:0.808" fill="#a59178" d="M 16.5,0.5 C 16.5,0.166667 16.5,-0.166667 16.5,-0.5C 17.8333,-0.5 19.1667,-0.5 20.5,-0.5C 20.8417,0.338246 21.5084,0.67158 22.5,0.5C 23.5063,1.39567 23.5063,2.06233 22.5,2.5C 21.8333,2.5 21.1667,2.5 20.5,2.5C 20.5,1.83333 20.1667,1.5 19.5,1.5C 18.791,0.596028 17.791,0.262695 16.5,0.5 Z"/></g>
<g><path style="opacity:0.998" fill="#e4d4b6" d="M 7.5,2.5 C 7.5,2.16667 7.5,1.83333 7.5,1.5C 8.16667,1.5 8.83333,1.5 9.5,1.5C 10.1667,1.5 10.8333,1.5 11.5,1.5C 11.5569,2.60895 11.8902,3.60895 12.5,4.5C 10.9891,3.49751 9.32239,2.83084 7.5,2.5 Z"/></g>
<g><path style="opacity:1" fill="#edcfa6" d="M 17.5,1.5 C 17.5,2.16667 17.5,2.83333 17.5,3.5C 16.3478,4.62495 15.3478,4.62495 14.5,3.5C 15.2223,2.44886 16.2223,1.78219 17.5,1.5 Z"/></g>
<g><path style="opacity:0.627" fill="#473c32" d="M 7.5,1.5 C 7.5,1.83333 7.5,2.16667 7.5,2.5C 7.5,2.83333 7.5,3.16667 7.5,3.5C 6.39105,3.55688 5.39105,3.89022 4.5,4.5C 4.81018,2.85637 5.81018,1.85637 7.5,1.5 Z"/></g>
<g><path style="opacity:1" fill="#ecc89d" d="M 14.5,0.5 C 14.5,1.5 14.5,2.5 14.5,3.5C 13.8333,3.5 13.5,3.83333 13.5,4.5C 13.1667,4.5 12.8333,4.5 12.5,4.5C 11.8902,3.60895 11.5569,2.60895 11.5,1.5C 12.391,0.890217 13.391,0.556884 14.5,0.5 Z"/></g>
<g><path style="opacity:1" fill="#c4b9a1" d="M 17.5,1.5 C 18.1667,1.5 18.8333,1.5 19.5,1.5C 20.1667,1.5 20.5,1.83333 20.5,2.5C 19.5,3.16667 18.5,3.83333 17.5,4.5C 17.5,4.16667 17.5,3.83333 17.5,3.5C 17.5,2.83333 17.5,2.16667 17.5,1.5 Z"/></g>
<g><path style="opacity:1" fill="#544335" d="M 22.5,0.5 C 24.5,0.5 25.5,1.5 25.5,3.5C 24.8333,3.83333 24.1667,4.16667 23.5,4.5C 23.1667,3.83333 22.8333,3.16667 22.5,2.5C 23.5063,2.06233 23.5063,1.39567 22.5,0.5 Z"/></g>
<g><path style="opacity:1" fill="#dfac7d" d="M 7.5,3.5 C 7.5,3.16667 7.5,2.83333 7.5,2.5C 9.32239,2.83084 10.9891,3.49751 12.5,4.5C 12.8333,4.5 13.1667,4.5 13.5,4.5C 13.5,4.83333 13.5,5.16667 13.5,5.5C 11.2646,5.79472 9.26465,5.46138 7.5,4.5C 8.83333,4.16667 8.83333,3.83333 7.5,3.5 Z"/></g>
<g><path style="opacity:1" fill="#eabe8f" d="M 20.5,2.5 C 21.1667,2.5 21.8333,2.5 22.5,2.5C 22.8333,3.16667 23.1667,3.83333 23.5,4.5C 22.8333,4.5 22.5,4.83333 22.5,5.5C 20.8333,5.5 19.1667,5.5 17.5,5.5C 17.5,5.16667 17.5,4.83333 17.5,4.5C 18.5,3.83333 19.5,3.16667 20.5,2.5 Z"/></g>
<g><path style="opacity:1" fill="#856247" d="M 25.5,3.5 C 26.1667,3.5 26.5,3.83333 26.5,4.5C 25.8333,4.5 25.5,4.83333 25.5,5.5C 24.5,5.5 23.5,5.5 22.5,5.5C 22.5,4.83333 22.8333,4.5 23.5,4.5C 24.1667,4.16667 24.8333,3.83333 25.5,3.5 Z"/></g>
<g><path style="opacity:0.218" fill="#241c19" d="M 26.5,4.5 C 28.2517,4.41755 29.2517,5.25089 29.5,7C 29.0098,9.34615 28.3432,11.5128 27.5,13.5C 27.5,12.5 27.5,11.5 27.5,10.5C 27.5,9.83333 27.5,9.16667 27.5,8.5C 27.5674,7.04125 27.2341,5.70792 26.5,4.5 Z"/></g>
<g><path style="opacity:1" fill="#805b43" d="M 7.5,3.5 C 8.83333,3.83333 8.83333,4.16667 7.5,4.5C 6.56552,5.56764 6.23219,6.90097 6.5,8.5C 5.83333,8.5 5.16667,8.5 4.5,8.5C 6.12901,6.80407 5.79568,5.80407 3.5,5.5C 3.5,4.83333 3.83333,4.5 4.5,4.5C 5.39105,3.89022 6.39105,3.55688 7.5,3.5 Z"/></g>
<g><path style="opacity:1" fill="#40342d" d="M 7.5,4.5 C 9.26465,5.46138 11.2646,5.79472 13.5,5.5C 13.5,5.83333 13.5,6.16667 13.5,6.5C 13.1667,6.5 12.8333,6.5 12.5,6.5C 10.2188,6.07729 8.55213,6.74395 7.5,8.5C 7.16667,8.5 6.83333,8.5 6.5,8.5C 6.23219,6.90097 6.56552,5.56764 7.5,4.5 Z"/></g>
<g><path style="opacity:1" fill="#92684c" d="M 14.5,3.5 C 15.3478,4.62495 16.3478,4.62495 17.5,3.5C 17.5,3.83333 17.5,4.16667 17.5,4.5C 17.5,4.83333 17.5,5.16667 17.5,5.5C 17.5,5.83333 17.5,6.16667 17.5,6.5C 16.5,6.5 15.5,6.5 14.5,6.5C 14.1667,6.5 13.8333,6.5 13.5,6.5C 13.5,6.16667 13.5,5.83333 13.5,5.5C 13.5,5.16667 13.5,4.83333 13.5,4.5C 13.5,3.83333 13.8333,3.5 14.5,3.5 Z"/></g>
<g><path style="opacity:1" fill="#423530" d="M 17.5,6.5 C 17.5,6.16667 17.5,5.83333 17.5,5.5C 19.1667,5.5 20.8333,5.5 22.5,5.5C 23.5,5.5 24.5,5.5 25.5,5.5C 25.5,6.5 25.5,7.5 25.5,8.5C 25.1667,9.16667 24.8333,9.83333 24.5,10.5C 24.7373,11.791 24.404,12.791 23.5,13.5C 23.5,13.1667 23.5,12.8333 23.5,12.5C 23.9746,9.91791 23.3079,7.91791 21.5,6.5C 20.1667,6.5 18.8333,6.5 17.5,6.5 Z"/></g>
<g><path style="opacity:1" fill="#d2a173" d="M 3.5,5.5 C 5.79568,5.80407 6.12901,6.80407 4.5,8.5C 3.59603,7.79105 3.26269,6.79105 3.5,5.5 Z"/></g>
<g><path style="opacity:1" fill="#151a20" d="M 12.5,6.5 C 11.8333,7.5 11.1667,8.5 10.5,9.5C 9.66175,9.84171 9.32842,10.5084 9.5,11.5C 9.16667,12.1667 8.83333,12.8333 8.5,13.5C 7.54885,12.0813 7.21552,10.4147 7.5,8.5C 8.55213,6.74395 10.2188,6.07729 12.5,6.5 Z"/></g>
<g><path style="opacity:1" fill="#433934" d="M 14.5,6.5 C 15.5,6.5 16.5,6.5 17.5,6.5C 17.5,7.16667 17.5,7.83333 17.5,8.5C 16.391,8.55688 15.391,8.89022 14.5,9.5C 14.5,8.5 14.5,7.5 14.5,6.5 Z"/></g>
<g><path style="opacity:1" fill="#0f151c" d="M 17.5,6.5 C 18.8333,6.5 20.1667,6.5 21.5,6.5C 21.1667,7.16667 20.8333,7.83333 20.5,8.5C 19.5,8.5 18.5,8.5 17.5,8.5C 17.5,7.83333 17.5,7.16667 17.5,6.5 Z"/></g>
<g><path style="opacity:1" fill="#a8704d" d="M 26.5,4.5 C 27.2341,5.70792 27.5674,7.04125 27.5,8.5C 26.8333,8.5 26.1667,8.5 25.5,8.5C 25.5,7.5 25.5,6.5 25.5,5.5C 25.5,4.83333 25.8333,4.5 26.5,4.5 Z"/></g>
<g><path style="opacity:1" fill="#314e58" d="M 12.5,6.5 C 12.8333,6.5 13.1667,6.5 13.5,6.5C 13.8333,6.5 14.1667,6.5 14.5,6.5C 14.5,7.5 14.5,8.5 14.5,9.5C 13.8333,9.83333 13.1667,10.1667 12.5,10.5C 12.1583,9.66175 11.4916,9.32842 10.5,9.5C 11.1667,8.5 11.8333,7.5 12.5,6.5 Z"/></g>
<g><path style="opacity:1" fill="#19222b" d="M 17.5,8.5 C 18.5,8.5 19.5,8.5 20.5,8.5C 20.8333,9.16667 21.1667,9.83333 21.5,10.5C 20.391,10.4431 19.391,10.1098 18.5,9.5C 17.8333,9.5 17.5,9.16667 17.5,8.5 Z"/></g>
<g><path style="opacity:1" fill="#30474f" d="M 21.5,6.5 C 23.3079,7.91791 23.9746,9.91791 23.5,12.5C 23.1667,12.5 22.8333,12.5 22.5,12.5C 22.1667,11.8333 21.8333,11.1667 21.5,10.5C 21.1667,9.83333 20.8333,9.16667 20.5,8.5C 20.8333,7.83333 21.1667,7.16667 21.5,6.5 Z"/></g>
<g><path style="opacity:1" fill="#29454e" d="M 10.5,9.5 C 11.4916,9.32842 12.1583,9.66175 12.5,10.5C 11.8333,10.5 11.5,10.8333 11.5,11.5C 10.8333,11.5 10.1667,11.5 9.5,11.5C 9.32842,10.5084 9.66175,9.84171 10.5,9.5 Z"/></g>
<g><path style="opacity:1" fill="#714732" d="M 25.5,8.5 C 26.1667,8.5 26.8333,8.5 27.5,8.5C 27.5,9.16667 27.5,9.83333 27.5,10.5C 26.8333,10.5 26.1667,10.5 25.5,10.5C 25.1667,10.5 24.8333,10.5 24.5,10.5C 24.8333,9.83333 25.1667,9.16667 25.5,8.5 Z"/></g>
<g><path style="opacity:1" fill="#b6a992" d="M 17.5,8.5 C 17.5,9.16667 17.8333,9.5 18.5,9.5C 18.5,10.1667 18.1667,10.5 17.5,10.5C 16.209,10.2627 15.209,10.596 14.5,11.5C 13.8333,11.5 13.1667,11.5 12.5,11.5C 12.1667,11.5 11.8333,11.5 11.5,11.5C 11.5,10.8333 11.8333,10.5 12.5,10.5C 13.1667,10.1667 13.8333,9.83333 14.5,9.5C 15.391,8.89022 16.391,8.55688 17.5,8.5 Z"/></g>
<g><path style="opacity:1" fill="#a28970" d="M 18.5,9.5 C 19.391,10.1098 20.391,10.4431 21.5,10.5C 21.8333,11.1667 22.1667,11.8333 22.5,12.5C 21.8333,12.5 21.1667,12.5 20.5,12.5C 19.8333,12.5 19.1667,12.5 18.5,12.5C 18.1667,12.5 17.8333,12.5 17.5,12.5C 17.5,11.8333 17.5,11.1667 17.5,10.5C 18.1667,10.5 18.5,10.1667 18.5,9.5 Z"/></g>
<g><path style="opacity:1" fill="#463329" d="M 3.5,5.5 C 3.26269,6.79105 3.59603,7.79105 4.5,8.5C 5.16667,8.5 5.83333,8.5 6.5,8.5C 6.83333,8.5 7.16667,8.5 7.5,8.5C 7.21552,10.4147 7.54885,12.0813 8.5,13.5C 8.5,13.8333 8.5,14.1667 8.5,14.5C 7.83333,14.5 7.5,14.8333 7.5,15.5C 6.83333,15.5 6.16667,15.5 5.5,15.5C 5.66212,13.4727 5.49546,11.4727 5,9.5C 4.58309,10.756 3.74975,11.4226 2.5,11.5C 1.86137,10.9032 1.52804,10.0698 1.5,9C 1.38655,7.30085 2.05322,6.13419 3.5,5.5 Z"/></g>
<g><path style="opacity:1" fill="#a99983" d="M 9.5,11.5 C 10.1667,11.5 10.8333,11.5 11.5,11.5C 11.8333,11.5 12.1667,11.5 12.5,11.5C 12.5,11.8333 12.5,12.1667 12.5,12.5C 11.5084,12.3284 10.8417,12.6618 10.5,13.5C 9.83333,13.8333 9.16667,14.1667 8.5,14.5C 8.5,14.1667 8.5,13.8333 8.5,13.5C 8.83333,12.8333 9.16667,12.1667 9.5,11.5 Z"/></g>
<g><path style="opacity:1" fill="#896145" d="M 12.5,12.5 C 12.5,12.1667 12.5,11.8333 12.5,11.5C 13.1667,11.5 13.8333,11.5 14.5,11.5C 14.5,11.8333 14.5,12.1667 14.5,12.5C 14.5,12.8333 14.5,13.1667 14.5,13.5C 14.6716,14.4916 14.3382,15.1583 13.5,15.5C 13.7373,14.209 13.404,13.209 12.5,12.5 Z"/></g>
<g><path style="opacity:1" fill="#6c5e57" d="M 17.5,10.5 C 17.5,11.1667 17.5,11.8333 17.5,12.5C 16.5,12.5 15.5,12.5 14.5,12.5C 14.5,12.1667 14.5,11.8333 14.5,11.5C 15.209,10.596 16.209,10.2627 17.5,10.5 Z"/></g>
<g><path style="opacity:1" fill="#7f523c" d="M 24.5,10.5 C 24.8333,10.5 25.1667,10.5 25.5,10.5C 25.5,11.1667 25.5,11.8333 25.5,12.5C 25.6716,13.4916 25.3382,14.1583 24.5,14.5C 23.8333,14.5 23.5,14.1667 23.5,13.5C 24.404,12.791 24.7373,11.791 24.5,10.5 Z"/></g>
<g><path style="opacity:1" fill="#43291e" d="M 25.5,10.5 C 26.1667,10.5 26.8333,10.5 27.5,10.5C 27.5,11.5 27.5,12.5 27.5,13.5C 26.8333,13.1667 26.1667,12.8333 25.5,12.5C 25.5,11.8333 25.5,11.1667 25.5,10.5 Z"/></g>
<g><path style="opacity:1" fill="#1e1311" d="M 5.5,15.5 C 5.5,16.1667 5.5,16.8333 5.5,17.5C 3.65353,15.9699 2.65353,13.9699 2.5,11.5C 3.74975,11.4226 4.58309,10.756 5,9.5C 5.49546,11.4727 5.66212,13.4727 5.5,15.5 Z"/></g>
<g><path style="opacity:1" fill="#110f10" d="M 14.5,13.5 C 14.5,13.1667 14.5,12.8333 14.5,12.5C 15.5,12.5 16.5,12.5 17.5,12.5C 17.8333,12.5 18.1667,12.5 18.5,12.5C 18.5,12.8333 18.5,13.1667 18.5,13.5C 17.1667,14.8333 15.8333,14.8333 14.5,13.5 Z"/></g>
<g><path style="opacity:1" fill="#ddc5a4" d="M 20.5,12.5 C 21.1667,12.5 21.8333,12.5 22.5,12.5C 22.8333,12.5 23.1667,12.5 23.5,12.5C 23.5,12.8333 23.5,13.1667 23.5,13.5C 23.5,14.1667 23.8333,14.5 24.5,14.5C 24.5,15.5 24.5,16.5 24.5,17.5C 23.8333,16.8333 23.1667,16.1667 22.5,15.5C 21.8333,14.5 21.1667,13.5 20.5,12.5 Z"/></g>
<g><path style="opacity:1" fill="#9a7252" d="M 10.5,13.5 C 11.2389,13.369 11.9056,13.5357 12.5,14C 11.2617,14.69 11.2617,15.19 12.5,15.5C 11.7659,16.7079 11.4326,18.0413 11.5,19.5C 11.5,20.1667 11.5,20.8333 11.5,21.5C 11.1667,21.5 10.8333,21.5 10.5,21.5C 10.5,21.1667 10.5,20.8333 10.5,20.5C 10.5,18.1667 10.5,15.8333 10.5,13.5 Z"/></g>
<g><path style="opacity:1" fill="#dca372" d="M 10.5,13.5 C 10.8417,12.6618 11.5084,12.3284 12.5,12.5C 13.404,13.209 13.7373,14.209 13.5,15.5C 13.1667,15.5 12.8333,15.5 12.5,15.5C 11.2617,15.19 11.2617,14.69 12.5,14C 11.9056,13.5357 11.2389,13.369 10.5,13.5 Z"/></g>
<g><path style="opacity:1" fill="#e7b485" d="M 18.5,12.5 C 19.1667,12.5 19.8333,12.5 20.5,12.5C 21.1667,13.5 21.8333,14.5 22.5,15.5C 22.5,16.1667 22.5,16.8333 22.5,17.5C 22.1667,17.5 21.8333,17.5 21.5,17.5C 20.2112,16.3634 19.2112,15.0301 18.5,13.5C 18.5,13.1667 18.5,12.8333 18.5,12.5 Z"/></g>
<g><path style="opacity:1" fill="#442b20" d="M 14.5,13.5 C 15.8333,14.8333 17.1667,14.8333 18.5,13.5C 19.2112,15.0301 20.2112,16.3634 21.5,17.5C 21.6495,18.552 21.4828,19.552 21,20.5C 20.7679,19.2625 20.2679,18.2625 19.5,17.5C 17.5,17.5 15.5,17.5 13.5,17.5C 12.8333,18.1667 12.1667,18.8333 11.5,19.5C 11.4326,18.0413 11.7659,16.7079 12.5,15.5C 12.8333,15.5 13.1667,15.5 13.5,15.5C 14.3382,15.1583 14.6716,14.4916 14.5,13.5 Z"/></g>
<g><path style="opacity:0.361" fill="#31221b" d="M 25.5,12.5 C 26.1667,12.8333 26.8333,13.1667 27.5,13.5C 27.2451,15.9674 26.2451,17.9674 24.5,19.5C 24.5,18.8333 24.5,18.1667 24.5,17.5C 24.5,16.5 24.5,15.5 24.5,14.5C 25.3382,14.1583 25.6716,13.4916 25.5,12.5 Z"/></g>
<g><path style="opacity:0.937" fill="#261815" d="M 5.5,15.5 C 6.16667,15.5 6.83333,15.5 7.5,15.5C 7.5,16.5 7.5,17.5 7.5,18.5C 8.10978,19.391 8.44312,20.391 8.5,21.5C 6.73758,20.7377 5.73758,19.4044 5.5,17.5C 5.5,16.8333 5.5,16.1667 5.5,15.5 Z"/></g>
<g><path style="opacity:1" fill="#c09b75" d="M 10.5,13.5 C 10.5,15.8333 10.5,18.1667 10.5,20.5C 9.73209,19.7375 9.23209,18.7375 9,17.5C 8.61742,18.056 8.11742,18.3893 7.5,18.5C 7.5,17.5 7.5,16.5 7.5,15.5C 7.5,14.8333 7.83333,14.5 8.5,14.5C 9.16667,14.1667 9.83333,13.8333 10.5,13.5 Z"/></g>
<g><path style="opacity:1" fill="#d69b6c" d="M 13.5,17.5 C 15.5,17.5 17.5,17.5 19.5,17.5C 19.7373,18.791 19.404,19.791 18.5,20.5C 18.1583,19.6618 17.4916,19.3284 16.5,19.5C 15.8106,18.2264 14.9772,18.2264 14,19.5C 13.5357,18.9056 13.369,18.2389 13.5,17.5 Z"/></g>
<g><path style="opacity:1" fill="#746355" d="M 10.5,20.5 C 10.5,20.8333 10.5,21.1667 10.5,21.5C 9.83333,21.5 9.16667,21.5 8.5,21.5C 8.44312,20.391 8.10978,19.391 7.5,18.5C 8.11742,18.3893 8.61742,18.056 9,17.5C 9.23209,18.7375 9.73209,19.7375 10.5,20.5 Z"/></g>
<g><path style="opacity:1" fill="#a47653" d="M 22.5,15.5 C 23.1667,16.1667 23.8333,16.8333 24.5,17.5C 24.5,18.1667 24.5,18.8333 24.5,19.5C 23.8333,19.5 23.5,19.8333 23.5,20.5C 23.1667,20.5 22.8333,20.5 22.5,20.5C 22.5,19.5 22.5,18.5 22.5,17.5C 22.5,16.8333 22.5,16.1667 22.5,15.5 Z"/></g>
<g><path style="opacity:1" fill="#83543a" d="M 13.5,17.5 C 13.369,18.2389 13.5357,18.9056 14,19.5C 14.9772,18.2264 15.8106,18.2264 16.5,19.5C 15.8333,19.5 15.5,19.8333 15.5,20.5C 14.0413,20.4326 12.7079,20.7659 11.5,21.5C 11.5,20.8333 11.5,20.1667 11.5,19.5C 12.1667,18.8333 12.8333,18.1667 13.5,17.5 Z"/></g>
<g><path style="opacity:1" fill="#54362b" d="M 15.5,20.5 C 15.5,20.8333 15.5,21.1667 15.5,21.5C 14.2921,22.2341 12.9587,22.5674 11.5,22.5C 10.8333,22.5 10.5,22.1667 10.5,21.5C 10.8333,21.5 11.1667,21.5 11.5,21.5C 12.7079,20.7659 14.0413,20.4326 15.5,20.5 Z"/></g>
<g><path style="opacity:1" fill="#764e38" d="M 16.5,19.5 C 17.4916,19.3284 18.1583,19.6618 18.5,20.5C 18.8333,21.1667 19.1667,21.8333 19.5,22.5C 18.0357,21.5946 16.7024,21.5946 15.5,22.5C 15.5,22.1667 15.5,21.8333 15.5,21.5C 15.5,21.1667 15.5,20.8333 15.5,20.5C 15.5,19.8333 15.8333,19.5 16.5,19.5 Z"/></g>
<g><path style="opacity:1" fill="#845e45" d="M 19.5,17.5 C 20.2679,18.2625 20.7679,19.2625 21,20.5C 21.4828,19.552 21.6495,18.552 21.5,17.5C 21.8333,17.5 22.1667,17.5 22.5,17.5C 22.5,18.5 22.5,19.5 22.5,20.5C 22.1667,21.1667 21.8333,21.8333 21.5,22.5C 20.8333,22.5 20.1667,22.5 19.5,22.5C 19.1667,21.8333 18.8333,21.1667 18.5,20.5C 19.404,19.791 19.7373,18.791 19.5,17.5 Z"/></g>
<g><path style="opacity:0.416" fill="#1c1210" d="M 8.5,21.5 C 9.16667,21.5 9.83333,21.5 10.5,21.5C 10.5,22.1667 10.8333,22.5 11.5,22.5C 11.5,23.1667 11.5,23.8333 11.5,24.5C 11.5,25.1667 11.1667,25.5 10.5,25.5C 9.9941,23.8946 9.32744,23.5613 8.5,24.5C 8.16667,24.5 7.83333,24.5 7.5,24.5C 7.06178,24.5654 6.72845,24.3988 6.5,24C 7.38053,23.2917 8.0472,22.4584 8.5,21.5 Z"/></g>
<g><path style="opacity:1" fill="#371e16" d="M 15.5,21.5 C 15.5,21.8333 15.5,22.1667 15.5,22.5C 15.5,22.8333 15.5,23.1667 15.5,23.5C 15.1667,23.5 14.8333,23.5 14.5,23.5C 13.5084,23.3284 12.8417,23.6618 12.5,24.5C 12.1667,24.5 11.8333,24.5 11.5,24.5C 11.5,23.8333 11.5,23.1667 11.5,22.5C 12.9587,22.5674 14.2921,22.2341 15.5,21.5 Z"/></g>
<g><path style="opacity:1" fill="#2d1d17" d="M 19.5,22.5 C 20.1667,22.5 20.8333,22.5 21.5,22.5C 21.5,22.8333 21.5,23.1667 21.5,23.5C 19.8333,23.5 18.1667,23.5 16.5,23.5C 16.1667,23.5 15.8333,23.5 15.5,23.5C 15.5,23.1667 15.5,22.8333 15.5,22.5C 16.7024,21.5946 18.0357,21.5946 19.5,22.5 Z"/></g>
<g><path style="opacity:1" fill="#4e2c1f" d="M 22.5,20.5 C 22.8333,20.5 23.1667,20.5 23.5,20.5C 23.7947,22.7354 23.4614,24.7354 22.5,26.5C 22.5,26.1667 22.5,25.8333 22.5,25.5C 22.5,24.8333 22.1667,24.5 21.5,24.5C 21.5,24.1667 21.5,23.8333 21.5,23.5C 21.5,23.1667 21.5,22.8333 21.5,22.5C 21.8333,21.8333 22.1667,21.1667 22.5,20.5 Z"/></g>
<g><path style="opacity:1" fill="#412118" d="M 16.5,24.5 C 16.5,24.1667 16.5,23.8333 16.5,23.5C 18.1667,23.5 19.8333,23.5 21.5,23.5C 21.5,23.8333 21.5,24.1667 21.5,24.5C 20.0413,24.4326 18.7079,24.7659 17.5,25.5C 17.5,24.8333 17.1667,24.5 16.5,24.5 Z"/></g>
<g><path style="opacity:0.149" fill="#100d0e" d="M 24.5,19.5 C 24.2606,21.4672 24.5939,23.3005 25.5,25C 24.9221,26.417 23.9221,27.2504 22.5,27.5C 22.5,27.1667 22.5,26.8333 22.5,26.5C 23.4614,24.7354 23.7947,22.7354 23.5,20.5C 23.5,19.8333 23.8333,19.5 24.5,19.5 Z"/></g>
<g><path style="opacity:1" fill="#512a1e" d="M 11.5,24.5 C 11.8333,24.5 12.1667,24.5 12.5,24.5C 12.5,26.1667 12.5,27.8333 12.5,29.5C 11.5,29.1667 10.8333,28.5 10.5,27.5C 11.5063,27.0623 11.5063,26.3957 10.5,25.5C 11.1667,25.5 11.5,25.1667 11.5,24.5 Z"/></g>
<g><path style="opacity:1" fill="#8e583c" d="M 14.5,23.5 C 14.8333,23.5 15.1667,23.5 15.5,23.5C 15.8333,23.5 16.1667,23.5 16.5,23.5C 16.5,23.8333 16.5,24.1667 16.5,24.5C 16.5,24.8333 16.5,25.1667 16.5,25.5C 14.8958,26.287 14.2291,27.6203 14.5,29.5C 13.4271,27.6531 13.4271,25.6531 14.5,23.5 Z"/></g>
<g><path style="opacity:1" fill="#7f4b32" d="M 21.5,24.5 C 22.1667,24.5 22.5,24.8333 22.5,25.5C 21.391,25.5569 20.391,25.8902 19.5,26.5C 18.5084,26.6716 17.8417,26.3382 17.5,25.5C 18.7079,24.7659 20.0413,24.4326 21.5,24.5 Z"/></g>
<g><path style="opacity:1" fill="#522a1f" d="M 10.5,25.5 C 11.5063,26.3957 11.5063,27.0623 10.5,27.5C 9.09368,27.0269 8.42702,26.0269 8.5,24.5C 9.32744,23.5613 9.9941,23.8946 10.5,25.5 Z"/></g>
<g><path style="opacity:1" fill="#613726" d="M 14.5,23.5 C 13.4271,25.6531 13.4271,27.6531 14.5,29.5C 15.1667,29.5 15.8333,29.5 16.5,29.5C 15.4324,30.4345 14.099,30.7678 12.5,30.5C 12.5,30.1667 12.5,29.8333 12.5,29.5C 12.5,27.8333 12.5,26.1667 12.5,24.5C 12.8417,23.6618 13.5084,23.3284 14.5,23.5 Z"/></g>
<g><path style="opacity:1" fill="#815037" d="M 16.5,24.5 C 17.1667,24.5 17.5,24.8333 17.5,25.5C 17.8417,26.3382 18.5084,26.6716 19.5,26.5C 19.5,27.1667 19.5,27.8333 19.5,28.5C 18.391,28.4431 17.391,28.1098 16.5,27.5C 16.5,26.8333 16.5,26.1667 16.5,25.5C 16.5,25.1667 16.5,24.8333 16.5,24.5 Z"/></g>
<g><path style="opacity:1" fill="#5b3224" d="M 22.5,25.5 C 22.5,25.8333 22.5,26.1667 22.5,26.5C 22.5,26.8333 22.5,27.1667 22.5,27.5C 22.5,28.1667 22.1667,28.5 21.5,28.5C 20.8333,28.5 20.1667,28.5 19.5,28.5C 19.5,27.8333 19.5,27.1667 19.5,26.5C 20.391,25.8902 21.391,25.5569 22.5,25.5 Z"/></g>
<g><path style="opacity:0.18" fill="#150f12" d="M 7.5,24.5 C 7.83333,24.5 8.16667,24.5 8.5,24.5C 8.42702,26.0269 9.09368,27.0269 10.5,27.5C 10.8333,28.5 11.5,29.1667 12.5,29.5C 12.5,29.8333 12.5,30.1667 12.5,30.5C 9.37911,29.7124 7.71244,27.7124 7.5,24.5 Z"/></g>
<g><path style="opacity:1" fill="#aa744f" d="M 16.5,25.5 C 16.5,26.1667 16.5,26.8333 16.5,27.5C 16.5,28.1667 16.5,28.8333 16.5,29.5C 15.8333,29.5 15.1667,29.5 14.5,29.5C 14.2291,27.6203 14.8958,26.287 16.5,25.5 Z"/></g>
<g><path style="opacity:1" fill="#311e19" d="M 16.5,27.5 C 17.391,28.1098 18.391,28.4431 19.5,28.5C 20.1667,28.5 20.8333,28.5 21.5,28.5C 20.6935,29.7281 19.6935,30.7281 18.5,31.5C 16.5,31.5 14.5,31.5 12.5,31.5C 12.5,31.1667 12.5,30.8333 12.5,30.5C 14.099,30.7678 15.4324,30.4345 16.5,29.5C 16.5,28.8333 16.5,28.1667 16.5,27.5 Z"/></g>
</svg>
